<svg xmlns="http://www.w3.org/2000/svg" viewBox="103.5 69.4 99 41.4">
  <!-- Pause title banner, traced from the design SVG (PauseHeader group). Brown 3D side +
       face + the Freestyle-Script "Paused" lettering (cream over its dark shadow), all as
       vector paths so no font is needed. The #230c00 contour around the trapezoid is added
       in CSS (drop-shadow) since it lived on the unified sign outline in the full mockup. -->
  <path fill="#623b21" d="m 104.03086,69.850002 17.42943,40.595458 h 70.24222 l 10.27018,-23.212538 -2.3859,-2.3859 z"/>
  <path fill="#7b4a2a" d="M 103.98125,69.867572 120.4035,108.1164 h 68.84645 l 10.28723,-23.251808 z"/>
  <path fill="#230c00" d="m 125.91579,94.48924 -0.21671,0.464381 q -1.60985,3.343538 -2.15163,4.767638 -0.83589,2.229021 -0.94424,2.600531 -0.32507,1.03712 -0.85137,1.03712 -0.3715,0 -0.63465,-0.34055 -0.23219,-0.29411 -0.23219,-0.63465 0,-1.33123 3.42094,-8.405288 -0.61918,-0.464381 -0.61918,-0.928761 0,-0.356025 0.30959,-0.619174 0.26315,-0.216711 0.57274,-0.216711 0.21671,0 0.57273,0.108356 2.52313,-4.798597 2.95656,-6.114342 -0.38699,0.216711 -0.99068,0.619174 -0.34055,0.216711 -0.6037,0.216711 -0.2941,0 -0.47986,-0.294108 -0.12383,-0.201231 -0.12383,-0.417942 0,-0.727529 1.25383,-1.563414 1.00615,-0.665612 1.873,-1.114513 0.13931,-0.371504 0.17027,-0.510818 0.15479,-0.588215 0.32507,-0.789447 0.17027,-0.201231 0.52629,-0.201231 0.72753,0 0.72753,0.804926 1.06808,-0.309587 1.88848,-0.464381 0.82041,-0.154793 1.39314,-0.154793 1.5015,0 2.53862,1.145471 0.9752,1.083555 0.9752,2.430258 0,2.337381 -1.9504,4.674762 -1.67177,1.981356 -4.14847,3.095869 -2.13615,0.94424 -4.2723,0.94424 -0.51081,0 -1.28478,-0.139314 z m 4.33422,-9.442401 q -0.51082,1.532456 -1.67177,3.931754 -1.4241,2.910117 -1.84205,3.807919 0.85137,0.154794 1.19191,0.154794 1.76465,0 4.11751,-1.4241 2.27546,-1.393141 3.56025,-3.451894 0.78945,-1.253827 0.78945,-2.229026 0,-0.882323 -0.6037,-1.315744 -0.58821,-0.448901 -1.7956,-0.448901 -0.91328,0 -1.85752,0.247669 -0.92876,0.23219 -1.88848,0.727529 z m 8.3901,14.287436 q -0.51082,0.897805 -1.00616,1.516975 -0.9752,1.20739 -1.93492,1.20739 -0.83588,0 -1.30026,-0.78945 -0.29411,-0.51081 -0.29411,-1.20739 0,-1.718203 1.08355,-3.792435 1.20739,-2.306422 2.91012,-3.54477 1.11451,-0.804926 2.15163,-0.804926 0.65013,0 1.08355,0.402463 0.37151,0.356025 0.37151,0.804926 0,0.340545 -0.26315,0.94424 0.23219,0.325066 0.23219,0.572736 0,0.325066 -0.43342,1.068075 -0.4489,0.758488 -0.8978,2.012315 -0.47986,1.331223 -0.47986,2.136149 0,0.650137 0.38698,1.068077 0.10835,0.10835 0.63465,0.35602 0.38699,0.18576 0.38699,0.65014 0,0.2941 -0.21672,0.47986 -0.23219,0.20123 -0.54177,0.20123 -0.83589,0 -1.43958,-0.74301 -0.49534,-0.6037 -0.49534,-1.51698 0,-0.30958 0.0619,-1.021635 z m 1.93492,-5.092704 q -0.18576,-0.340546 -0.40247,-0.495339 -0.21671,-0.170273 -0.46438,-0.170273 -1.17643,0 -2.55409,2.058753 -1.51698,2.275464 -1.51698,3.854357 0,0.386984 0.13932,0.588211 0.15479,0.20124 0.4489,0.20124 0.74301,0 1.73369,-1.578898 0.55725,-0.866843 1.37766,-2.554092 0.54177,-1.099033 0.78944,-1.455058 0.12384,-0.185752 0.44891,-0.448901 z m 6.37778,5.278457 q -0.66561,0.928762 -1.17643,1.486012 -0.8978,0.99068 -1.78012,0.99068 -0.75849,0 -1.17643,-0.68109 -0.29411,-0.47986 -0.29411,-1.14547 0,-1.996835 1.70273,-4.581886 0.78944,-1.207389 1.56341,-1.842042 0.60369,-0.510819 0.99068,-0.510819 0.21671,0 0.40246,0.185752 0.15479,0.170273 0.15479,0.340546 0,0.294108 -0.57273,0.959719 -1.28479,1.532456 -1.9504,2.817241 -0.77397,1.501497 -0.77397,2.352861 0,0.216708 0.0929,0.340548 0.10836,0.10835 0.29411,0.10835 0.78944,0 2.19806,-2.259982 0.72753,-1.17643 1.25383,-2.60053 0.27863,-0.773967 0.72753,-1.377661 0.43342,-0.541777 0.85137,-0.541777 0.23219,0 0.41794,0.201231 0.20123,0.216711 0.20123,0.47986 0,0.557256 -1.06808,2.507654 -0.72753,1.346703 -0.72753,2.244505 0,0.959719 0.51082,1.64081 0.13932,0.18575 0.85137,0.58822 0.34054,0.20123 0.34054,0.65013 0,0.27863 -0.24767,0.47986 -0.23219,0.20123 -0.57273,0.20123 -0.77397,0 -1.40862,-0.61917 -0.57274,-0.55726 -0.72753,-1.60986 -0.031,-0.13931 -0.0774,-0.804922 z m 11.36214,-7.909946 q 0.95972,0 1.43958,0.340546 0.47986,0.340545 0.47986,1.037116 0,0.913281 -0.6811,1.764645 -0.65013,0.804926 -1.95039,1.300265 -0.71205,0.263149 -1.19191,0.263149 -0.65014,0 -0.65014,-0.572736 0,-0.386983 0.37151,-0.588215 0.0929,-0.04644 1.05259,-0.263149 0.57274,-0.123835 1.0526,-0.541777 0.41794,-0.356025 0.41794,-0.773967 0,-0.325066 -0.18575,-0.47986 -0.18575,-0.154793 -0.55726,-0.154793 -0.8978,0 -1.98135,0.727529 -1.25383,0.820405 -1.25383,1.950398 0,0.804925 0.82041,2.012314 0.91328,1.315745 0.91328,2.229026 0,1.362187 -1.20739,2.136147 -0.74301,0.47986 -1.68725,0.47986 -1.48602,0 -2.25999,-1.06807 -0.54177,-0.75849 -0.54177,-1.795606 0,-1.207389 0.61917,-2.027795 0.40246,-0.541777 0.83589,-0.541777 0.38698,0 0.38698,0.309587 0,0.123835 -0.13931,0.371505 -0.35603,0.665611 -0.35603,1.563413 0,0.758493 0.54178,1.284783 0.47986,0.46438 1.09903,0.46438 0.6037,0 0.94424,-0.40246 0.27863,-0.34055 0.27863,-0.866843 0,-0.650132 -0.74301,-1.687249 -1.02164,-1.424099 -1.02164,-2.58505 0,-1.547935 1.68725,-2.739844 1.64081,-1.145472 3.46738,-1.145472 z m 2.50795,7.306251 v 0.278628 q 0,0.340546 0.17027,0.588216 0.38698,0.572733 1.26931,0.572733 1.93491,0 4.47353,-2.972032 0.4489,-0.510818 0.75848,-0.510818 0.17028,0 0.30959,0.170272 0.0929,0.123835 0.0929,0.232191 0,0.603694 -1.48602,2.043273 -1.16095,1.129994 -2.4767,1.842044 -1.31574,0.71205 -2.44573,0.71205 -1.16095,0 -1.82656,-0.80493 -0.44891,-0.55725 -0.44891,-1.516974 0,-2.616009 2.46122,-5.123663 1.99684,-2.043274 3.48285,-2.043274 0.40247,0 0.72753,0.24767 0.40247,0.325066 0.40247,0.851364 0,0.820405 -0.75849,2.012315 -1.56342,2.476695 -4.70572,3.420935 z m 0.34054,-1.207389 q 1.08356,-0.371504 1.70273,-0.835884 1.08355,-0.835885 1.71821,-1.888481 0.23219,-0.371504 0.23219,-0.665612 0,-0.309586 -0.29411,-0.309586 -0.40246,0 -1.14547,0.603694 -1.33123,1.068075 -2.21355,3.095869 z m 13.73048,-4.860514 q 1.54793,-3.235184 2.92559,-5.634482 1.33123,-2.321902 1.81109,-2.925597 0.52629,-0.665611 0.99068,-0.665611 0.24766,0 0.4489,0.201231 0.18575,0.201231 0.18575,0.433422 0,0.356025 -0.5263,1.191909 -2.2445,3.622167 -4.11751,7.35269 -2.1671,4.349696 -2.1671,6.516804 0,0.882324 0.34054,1.393144 0.0619,0.10835 0.55726,0.49534 0.0929,0.0774 0.0929,0.30958 0,0.30959 -0.24767,0.57274 -0.23219,0.24767 -0.52629,0.24767 -0.35603,0 -0.78945,-0.43342 -0.61917,-0.61918 -0.74301,-1.4241 -0.0464,-0.34055 -0.10835,-1.269309 -1.62533,2.925599 -3.09587,2.925599 -0.85137,0 -1.36219,-0.95972 -0.34054,-0.63466 -0.34054,-1.439582 0,-2.414777 1.76464,-4.860514 1.74917,-2.414778 3.76149,-2.414778 0.55725,0 1.14547,0.386984 z m -0.5263,1.269306 q -0.41794,-0.278628 -0.72753,-0.278628 -1.30026,0 -2.46122,1.594372 -1.53245,2.074233 -1.53245,4.009151 0,0.23219 0.0929,0.433422 0.18575,0.386987 0.55725,0.386987 0.54178,0 1.31575,-1.052599 1.03711,-1.393141 1.91943,-3.297101 0.30959,-0.650132 0.6037,-1.300265 0,0 0.13931,-0.294108 z"/>
  <path fill="#fff3c0" d="m 124.89328,94.148367 -0.21671,0.46438 q -1.60985,3.343539 -2.15163,4.767638 -0.83588,2.229025 -0.94424,2.600535 -0.32506,1.03711 -0.85136,1.03711 -0.37151,0 -0.63466,-0.34054 -0.23219,-0.29411 -0.23219,-0.63466 0,-1.33122 3.42094,-8.405282 -0.61917,-0.46438 -0.61917,-0.928761 0,-0.356025 0.30958,-0.619173 0.26315,-0.216711 0.57274,-0.216711 0.21671,0 0.57273,0.108355 2.52314,-4.798597 2.95656,-6.114341 -0.38698,0.21671 -0.99068,0.619173 -0.34054,0.216711 -0.60369,0.216711 -0.29411,0 -0.47986,-0.294107 -0.12384,-0.201232 -0.12384,-0.417943 0,-0.727529 1.25383,-1.563414 1.00616,-0.665611 1.873,-1.114513 0.13931,-0.371504 0.17027,-0.510818 0.1548,-0.588215 0.32507,-0.789447 0.17027,-0.201231 0.5263,-0.201231 0.72753,0 0.72753,0.804926 1.06807,-0.309587 1.88848,-0.46438 0.8204,-0.154794 1.39314,-0.154794 1.50149,0 2.53861,1.145472 0.9752,1.083554 0.9752,2.430257 0,2.337381 -1.9504,4.674762 -1.67177,1.981357 -4.14846,3.09587 -2.13615,0.94424 -4.2723,0.94424 -0.51082,0 -1.28479,-0.139314 z m 4.33422,-9.442401 q -0.51082,1.532455 -1.67177,3.931753 -1.4241,2.910117 -1.84204,3.80792 0.85136,0.154793 1.19191,0.154793 1.76464,0 4.1175,-1.4241 2.27547,-1.393141 3.56025,-3.451894 0.78945,-1.253827 0.78945,-2.229026 0,-0.882322 -0.6037,-1.315744 -0.58821,-0.448901 -1.7956,-0.448901 -0.91328,0 -1.85752,0.247669 -0.92876,0.232191 -1.88848,0.72753 z m 8.3901,14.287436 q -0.51082,0.897802 -1.00616,1.516978 -0.9752,1.20739 -1.93492,1.20739 -0.83588,0 -1.30026,-0.78945 -0.29411,-0.51082 -0.29411,-1.207389 0,-1.718207 1.08356,-3.79244 1.20739,-2.306422 2.91011,-3.54477 1.11452,-0.804926 2.15163,-0.804926 0.65013,0 1.08356,0.402463 0.3715,0.356025 0.3715,0.804926 0,0.340546 -0.26315,0.94424 0.23219,0.325066 0.23219,0.572736 0,0.325066 -0.43342,1.068075 -0.4489,0.758488 -0.8978,2.012315 -0.47986,1.331224 -0.47986,2.13615 0,0.65013 0.38698,1.06807 0.10836,0.10836 0.63466,0.35603 0.38698,0.18575 0.38698,0.65013 0,0.29411 -0.21671,0.47986 -0.23219,0.20123 -0.54178,0.20123 -0.83588,0 -1.43958,-0.74301 -0.49534,-0.60369 -0.49534,-1.51697 0,-0.309588 0.0619,-1.021638 z m 1.93492,-5.092705 q -0.18575,-0.340546 -0.40246,-0.495339 -0.21672,-0.170273 -0.46438,-0.170273 -1.17644,0 -2.5541,2.058753 -1.51697,2.275464 -1.51697,3.854357 0,0.386984 0.13931,0.588215 0.15479,0.201232 0.4489,0.201232 0.74301,0 1.73369,-1.578893 0.55726,-0.866844 1.37766,-2.554092 0.54178,-1.099034 0.78945,-1.455059 0.12383,-0.185752 0.4489,-0.448901 z m 6.37778,5.278457 q -0.66561,0.928756 -1.17643,1.486016 -0.8978,0.99068 -1.78012,0.99068 -0.75849,0 -1.17643,-0.68109 -0.29411,-0.47986 -0.29411,-1.145474 0,-1.996835 1.70273,-4.581886 0.78945,-1.207389 1.56341,-1.842042 0.6037,-0.510818 0.99068,-0.510818 0.21671,0 0.40246,0.185752 0.1548,0.170272 0.1548,0.340545 0,0.294108 -0.57274,0.95972 -1.28478,1.532455 -1.9504,2.817241 -0.77396,1.501496 -0.77396,2.35286 0,0.216711 0.0929,0.340546 0.10836,0.108355 0.29411,0.108355 0.78945,0 2.19807,-2.259984 0.72753,-1.176431 1.25383,-2.60053 0.27862,-0.773968 0.72752,-1.377662 0.43343,-0.541777 0.85137,-0.541777 0.23219,0 0.41794,0.201231 0.20123,0.216711 0.20123,0.47986 0,0.557256 -1.06807,2.507654 -0.72753,1.346703 -0.72753,2.244505 0,0.95972 0.51082,1.640814 0.13931,0.18575 0.85136,0.58821 0.34055,0.20123 0.34055,0.65013 0,0.27863 -0.24767,0.47986 -0.23219,0.20124 -0.57274,0.20124 -0.77397,0 -1.40862,-0.61918 -0.57274,-0.55725 -0.72753,-1.60985 -0.031,-0.139314 -0.0774,-0.804926 z m 11.36214,-7.909946 q 0.95972,0 1.43958,0.340546 0.47986,0.340545 0.47986,1.037116 0,0.913281 -0.68109,1.764645 -0.65013,0.804926 -1.9504,1.300265 -0.71205,0.263149 -1.19191,0.263149 -0.65013,0 -0.65013,-0.572735 0,-0.386984 0.3715,-0.588216 0.0929,-0.04644 1.0526,-0.263148 0.57273,-0.123835 1.05259,-0.541778 0.41795,-0.356025 0.41795,-0.773967 0,-0.325066 -0.18576,-0.47986 -0.18575,-0.154793 -0.55725,-0.154793 -0.89781,0 -1.98136,0.727529 -1.25383,0.820406 -1.25383,1.950398 0,0.804926 0.82041,2.012315 0.91328,1.315744 0.91328,2.229026 0,1.36218 -1.20739,2.13615 -0.74301,0.47986 -1.68725,0.47986 -1.48601,0 -2.25998,-1.06808 -0.54178,-0.75848 -0.54178,-1.7956 0,-1.207389 0.61917,-2.027794 0.40247,-0.541777 0.83589,-0.541777 0.38698,0 0.38698,0.309587 0,0.123834 -0.13931,0.371504 -0.35603,0.665612 -0.35603,1.563414 0,0.758488 0.54178,1.284786 0.47986,0.46438 1.09903,0.46438 0.6037,0 0.94424,-0.40246 0.27863,-0.340549 0.27863,-0.866847 0,-0.650132 -0.74301,-1.687248 -1.02163,-1.4241 -1.02163,-2.585051 0,-1.547935 1.68725,-2.739844 1.64081,-1.145472 3.46737,-1.145472 z m 2.50795,7.306251 v 0.278629 q 0,0.340545 0.17027,0.588215 0.38699,0.572737 1.26931,0.572737 1.93492,0 4.47353,-2.972036 0.4489,-0.510818 0.75849,-0.510818 0.17027,0 0.30958,0.170273 0.0929,0.123834 0.0929,0.23219 0,0.603694 -1.48602,2.043273 -1.16095,1.129988 -2.47669,1.842038 -1.31575,0.71205 -2.44574,0.71205 -1.16095,0 -1.82656,-0.80492 -0.4489,-0.55726 -0.4489,-1.516977 0,-2.61601 2.46121,-5.123664 1.99684,-2.043273 3.48286,-2.043273 0.40246,0 0.72753,0.247669 0.40246,0.325066 0.40246,0.851364 0,0.820405 -0.75849,2.012315 -1.56341,2.476695 -4.70572,3.420935 z m 0.34055,-1.207389 q 1.08355,-0.371504 1.70272,-0.835884 1.08356,-0.835885 1.71821,-1.88848 0.23219,-0.371505 0.23219,-0.665612 0,-0.309587 -0.29411,-0.309587 -0.40246,0 -1.14547,0.603694 -1.33122,1.068075 -2.21354,3.095869 z m 13.73047,-4.860514 q 1.54794,-3.235183 2.9256,-5.634482 1.33122,-2.321902 1.81108,-2.925596 0.5263,-0.665612 0.99068,-0.665612 0.24767,0 0.4489,0.201231 0.18575,0.201232 0.18575,0.433422 0,0.356025 -0.5263,1.19191 -2.2445,3.622167 -4.1175,7.352689 -2.16711,4.349696 -2.16711,6.516804 0,0.882323 0.34055,1.393138 0.0619,0.10836 0.55725,0.49534 0.0929,0.0774 0.0929,0.30959 0,0.30959 -0.24767,0.57274 -0.23219,0.24766 -0.5263,0.24766 -0.35602,0 -0.78945,-0.43342 -0.61917,-0.61917 -0.743,-1.4241 -0.0464,-0.340542 -0.10836,-1.269303 -1.62533,2.925593 -3.09587,2.925593 -0.85136,0 -1.36218,-0.95972 -0.34055,-0.63465 -0.34055,-1.439575 0,-2.414778 1.76465,-4.860515 1.74916,-2.414778 3.76148,-2.414778 0.55726,0 1.14547,0.386984 z m -0.5263,1.269306 q -0.41794,-0.278628 -0.72753,-0.278628 -1.30026,0 -2.46121,1.594373 -1.53246,2.074232 -1.53246,4.00915 0,0.23219 0.0929,0.433422 0.18575,0.386984 0.55725,0.386984 0.54178,0 1.31575,-1.052596 1.03712,-1.393141 1.91944,-3.297101 0.30959,-0.650132 0.60369,-1.300265 0,0 0.13932,-0.294107 z"/>
</svg>
